<?xml version="1.0" encoding="utf-8"?>
<!-- Generator: Adobe Illustrator 26.1.0, SVG Export Plug-In . SVG Version: 6.00 Build 0)  -->
<svg version="1.1" id="Layer_1" xmlns="http://www.w3.org/2000/svg" xmlns:xlink="http://www.w3.org/1999/xlink" x="0px" y="0px"
	 viewBox="0 0 512 318.32" style="enable-background:new 0 0 512 318.32;" xml:space="preserve">
<style type="text/css">
	.st0{fill:#FFFFFF;}
	.st1{fill:#E99E30;}
	.st2{fill:#027EBE;}
	.st3{fill:#018CCD;}
	.st4{fill:#069AD7;}
	.st5{fill:#1FA3DD;}
	.st6{fill:#20A9E1;}
	.st7{fill:#25BBEB;}
	.st8{fill:#EA9E30;}
	.st9{fill:#007EBE;}
	.st10{fill:#008ECE;}
	.st11{fill:#009CDD;}
	.st12{fill:#00A5E5;}
	.st13{fill:#00ACEB;}
	.st14{fill:#21BCEC;}
	.st15{fill:url(#SVGID_1_);}
	.st16{fill:url(#SVGID_00000157275293414641925750000003530094372674413458_);}
</style>
<g>
	<g>
		<g>
			<polygon points="40.18,250.38 40.18,209.33 46.71,209.33 63.73,236.4 63.73,209.33 71.85,209.33 71.85,250.38 65.32,250.38 
				48.36,223.31 48.36,250.38 			"/>
		</g>
		<g>
			<path d="M98.31,250.65c-0.88,0-1.88-0.09-3.02-0.28c-1.13-0.15-2.23-0.52-3.29-1.11c-1.02-0.59-1.88-1.48-2.58-2.66
				c-0.66-1.22-0.99-2.88-0.99-4.99V218.7c0-1.81,0.27-3.33,0.82-4.55c0.55-1.22,1.28-2.18,2.2-2.88c0.91-0.7,1.92-1.2,3.02-1.5
				c1.1-0.3,2.18-0.44,3.24-0.44c2.74,0,5.16,0.04,7.25,0.11c2.12,0.07,4.03,0.17,5.71,0.28c1.68,0.07,3.22,0.19,4.61,0.33v6.88
				h-15.15c-1.13,0-2.01,0.28-2.63,0.83c-0.62,0.55-0.93,1.41-0.93,2.55v5.94l16.08,0.44v6.49l-16.08,0.44v5.66
				c0,0.96,0.15,1.72,0.44,2.27c0.33,0.52,0.75,0.89,1.26,1.11c0.55,0.18,1.12,0.28,1.7,0.28h15.31v6.88
				c-1.61,0.18-3.4,0.33-5.38,0.44c-1.94,0.11-3.92,0.2-5.93,0.28C101.99,250.62,100.11,250.65,98.31,250.65z"/>
		</g>
		<g>
			<polygon points="139.57,250.38 139.57,216.7 128.43,216.7 128.43,209.33 158.9,209.33 158.9,216.7 147.7,216.7 147.7,250.38 			
				"/>
		</g>
		<g>
			<polygon points="173.16,250.38 173.16,209.33 181.29,209.33 181.29,226.41 196.6,226.41 196.6,209.33 204.78,209.33 
				204.78,250.38 196.6,250.38 196.6,233.79 181.29,233.79 181.29,250.38 			"/>
		</g>
		<g>
			<path d="M231.52,250.65c-0.88,0-1.88-0.09-3.02-0.28c-1.13-0.15-2.23-0.52-3.29-1.11c-1.02-0.59-1.88-1.48-2.58-2.66
				c-0.66-1.22-0.99-2.88-0.99-4.99V218.7c0-1.81,0.27-3.33,0.82-4.55c0.55-1.22,1.28-2.18,2.2-2.88c0.91-0.7,1.92-1.2,3.02-1.5
				c1.1-0.3,2.18-0.44,3.24-0.44c2.74,0,5.16,0.04,7.25,0.11c2.12,0.07,4.02,0.17,5.71,0.28c1.69,0.07,3.22,0.19,4.61,0.33v6.88
				h-15.15c-1.13,0-2.01,0.28-2.63,0.83c-0.62,0.55-0.93,1.41-0.93,2.55v5.94l16.08,0.44v6.49l-16.08,0.44v5.66
				c0,0.96,0.15,1.72,0.44,2.27c0.33,0.52,0.75,0.89,1.26,1.11c0.55,0.18,1.12,0.28,1.7,0.28h15.32v6.88
				c-1.61,0.18-3.4,0.33-5.38,0.44c-1.94,0.11-3.92,0.2-5.93,0.28C235.19,250.62,233.31,250.65,231.52,250.65z"/>
		</g>
		<g>
			<path d="M264.27,250.38v-41.05h16.8c1.61,0,3.11,0.2,4.5,0.61c1.39,0.37,2.62,1.04,3.68,2c1.06,0.96,1.89,2.29,2.47,3.99
				c0.62,1.7,0.93,3.88,0.93,6.55c0,1.89-0.18,3.49-0.55,4.83c-0.37,1.33-0.86,2.42-1.48,3.27c-0.59,0.85-1.26,1.53-2.03,2.05
				c-0.77,0.52-1.55,0.94-2.36,1.28l7.57,16.48h-8.29l-6.53-15.2c-0.44,0-0.95,0-1.54,0c-0.55-0.04-1.12-0.06-1.7-0.06
				s-1.17,0-1.76,0c-0.59,0-1.12-0.02-1.59-0.06v15.31H264.27z M272.39,228.58h7.25c0.73,0,1.39-0.09,1.98-0.28
				c0.59-0.18,1.1-0.5,1.54-0.94c0.44-0.48,0.77-1.11,0.99-1.89c0.25-0.78,0.38-1.78,0.38-3c0-1.15-0.13-2.09-0.38-2.83
				c-0.22-0.78-0.55-1.37-0.99-1.78c-0.44-0.44-0.95-0.74-1.54-0.89c-0.59-0.18-1.24-0.28-1.98-0.28h-7.25V228.58z"/>
		</g>
		<g>
			<polygon points="307.46,250.38 312.18,209.33 319.98,209.33 329.31,240.78 338.59,209.33 346.32,209.33 351.1,250.38 
				343.25,250.38 339.74,220.14 341,220.25 333.04,250.38 325.41,250.38 317.34,220.25 318.72,220.2 315.31,250.38 			"/>
		</g>
		<g>
			<rect x="366.9" y="209.33" width="8.12" height="41.05"/>
		</g>
		<g>
			<polygon points="392.22,250.38 392.22,209.33 398.76,209.33 415.77,236.4 415.77,209.33 423.9,209.33 423.9,250.38 
				417.36,250.38 400.4,223.31 400.4,250.38 			"/>
		</g>
		<g>
			<path d="M440.48,250.38v-41.05h17.18c2.74,0,5.03,0.5,6.86,1.5c1.83,0.96,3.28,2.37,4.34,4.22c1.1,1.81,1.87,3.98,2.31,6.49
				c0.44,2.51,0.66,5.29,0.66,8.32c0,4.62-0.53,8.45-1.59,11.48c-1.03,3.03-2.58,5.31-4.67,6.82c-2.09,1.48-4.72,2.22-7.9,2.22
				H440.48z M448.6,243h8.23c1.68,0,3.02-0.48,4.01-1.44c0.99-1,1.7-2.48,2.14-4.44c0.48-1.96,0.71-4.38,0.71-7.27
				c0-2.66-0.15-4.84-0.44-6.55c-0.29-1.74-0.73-3.09-1.32-4.05c-0.55-0.96-1.26-1.63-2.14-2c-0.84-0.37-1.83-0.55-2.96-0.55h-8.23
				V243z"/>
		</g>
	</g>
	<g>
		<path class="st8" d="M210.52,136.14c-4.56,0-9-1.44-12.69-4.1c-3.69-2.66-6.44-6.42-7.86-10.74l-25.16,6.09
			c2.17,7.35,6.13,14.06,11.54,19.52c5.4,5.46,12.08,9.5,19.43,11.77c7.35,2.27,15.16,2.69,22.71,1.22
			c7.56-1.46,14.63-4.77,20.59-9.62l-14.74-19.14C220.47,134.37,215.58,136.14,210.52,136.14z"/>
		<path class="st9" d="M188.89,114.61c0-3.5,0.86-6.94,2.51-10.03c1.64-3.09,4.02-5.74,6.92-7.71l-17.76-19.05
			c-7.3,5.75-12.71,13.54-15.52,22.38c-2.81,8.84-2.89,18.31-0.23,27.2l25.15-6.09C189.26,119.14,188.9,116.88,188.89,114.61z"/>
		<path class="st10" d="M210.52,93.08c3.49,0.01,6.92,0.86,10,2.5l11.86-21.98c-8.08-4.52-17.32-6.53-26.56-5.78
			c-9.23,0.75-18.03,4.24-25.26,10l17.77,19.02c3.59-2.46,7.84-3.77,12.2-3.76"/>
		<path class="st11" d="M229.73,104.74l19.73-14.77c-4.2-6.81-10.07-12.44-17.06-16.36l-11.88,21.97
			C224.45,97.63,227.67,100.82,229.73,104.74z"/>
		<path class="st8" d="M302.25,93.08c5.11,0,10.06,1.81,13.96,5.1c3.9,3.29,6.5,7.86,7.34,12.88l24.68-5.7
			c-1.49-7.74-4.93-14.98-10-21.03c-5.07-6.05-11.61-10.72-18.99-13.56c-7.38-2.84-15.37-3.76-23.21-2.67
			c-7.84,1.09-15.27,4.14-21.6,8.88L289.84,97C293.47,94.45,297.81,93.08,302.25,93.08z"/>
		<path class="st12" d="M283.59,125.44l-19.8,15c5.85,8.51,14.37,14.86,24.22,18.04c2.59-7.88,5.96-17.71,7.82-23.37
			c-5.16-1.6-9.53-5.05-12.27-9.69"/>
		<path class="st13" d="M302.25,136.14c-2.17-0.01-4.32-0.34-6.39-1c-1.87,5.66-5.24,15.46-7.83,23.36
			c7.24,2.33,14.94,2.86,22.43,1.54c7.49-1.32,14.54-4.46,20.53-9.13l-15.6-19.26c-3.76,2.9-8.39,4.47-13.14,4.46"/>
		<path class="st14" d="M323.88,114.61c0,3.3-0.76,6.56-2.23,9.52c-1.47,2.96-3.61,5.54-6.25,7.54L331,150.92
			c5.63-4.34,10.19-9.9,13.33-16.26c3.14-6.36,4.77-13.36,4.78-20.45c0-2.96-0.29-5.92-0.86-8.83l-24.68,5.69
			c0.21,1.17,0.32,2.36,0.32,3.54"/>
	</g>
</g>
</svg>
