<?xml version="1.0" encoding="utf-8"?>
<!-- Generator: Adobe Illustrator 27.5.0, SVG Export Plug-In . SVG Version: 6.00 Build 0)  -->
<svg version="1.1" id="Layer_1" xmlns="http://www.w3.org/2000/svg" xmlns:xlink="http://www.w3.org/1999/xlink" x="0px" y="0px"
	 width="427.1px" height="211.6px" viewBox="0 0 427.1 211.6" style="enable-background:new 0 0 427.1 211.6;" xml:space="preserve"
	>
<style type="text/css">
	.st0{fill:#00ACEB;}
	.st1{fill:#00BFF2;}
	.st2{fill:#009CDD;}
	.st3{fill:#FFA726;}
</style>
<g>
	<g id="XMLID_00000000209599212211036890000006728175402107455401_">
		<g>
			<path class="st0" d="M164.6,1.6l-9.1,33.9c-1.6-0.3-3.3-0.5-5-0.5c-2.5,0-4.9,0.3-7.3,0.9c-4.1,1.1-7.8,3.1-10.9,5.7l-24.8-24.8
				c3.2-3,6.7-5.7,10.5-7.9l1.9-1.1c4.4-2.4,9.2-4.4,14.2-5.7c5.2-1.4,10.7-2.1,16.3-2.1C155.4,0,160.1,0.5,164.6,1.6z"/>
			<path class="st1" d="M338,48.9c1.1,4.5,1.6,9.2,1.6,14.1c0,5.7-0.7,11.1-2.1,16.3c-1.3,5-3.3,9.7-5.7,14.2l-1.1,2
				c-2.3,3.8-4.9,7.3-7.9,10.5l-24.8-24.8c2.6-3.1,4.6-6.8,5.7-10.9c0.6-2.3,0.9-4.7,0.9-7.3c0-1.7-0.1-3.3-0.4-4.9L338,48.9z"/>
			<path class="st2" d="M267.2,89.5l-9.1,33.9c-4.2-1.3-8.2-3-12-5.1l-1.9-1.1c-4.5-2.7-8.5-5.9-12.2-9.5c0,0,0,0,0,0l-1.8-1.9
				c-1.4-1.5-2.8-3.2-4-4.8l24.4-24.4l5.4,5.6c0.2,0.3,0.5,0.5,0.8,0.8C259.6,85.8,263.2,88.1,267.2,89.5z"/>
			<path class="st2" d="M201,25.2l-24.4,24.4l0,0l-5.4-5.6c-0.3-0.3-0.5-0.5-0.8-0.8c-2.9-2.9-6.5-5.2-10.4-6.6L169,2.7
				c4.2,1.3,8.3,3,12,5.1l1.9,1.1c4.5,2.7,8.6,5.9,12.2,9.5c0,0,0,0,0,0l1.8,1.9C198.3,21.9,199.7,23.6,201,25.2z"/>
			<path class="st0" d="M294.7,84.4l24.8,24.8c-3.2,3-6.7,5.7-10.5,7.9l-1.9,1.1c-4.4,2.4-9.2,4.4-14.2,5.7
				c-5.2,1.4-10.7,2.1-16.3,2.1c-4.9,0-9.6-0.5-14.1-1.6l9.1-33.9c1.6,0.3,3.3,0.5,5,0.5c2.5,0,5-0.3,7.3-0.9
				C287.9,89,291.6,87.1,294.7,84.4z"/>
			<path class="st3" d="M165.8,86.5l24.7,25.2c-2.4,2-4.9,3.8-7.6,5.3l-2,1.1c-4.4,2.5-9.2,4.4-14.1,5.7c-5.2,1.4-10.7,2.1-16.3,2.1
				c-5.6,0-11.1-0.7-16.3-2.1c-5-1.3-9.7-3.3-14.1-5.7l-2-1.2c-4.4-2.6-8.5-5.8-12.1-9.5c-3.6-3.6-6.8-7.7-9.5-12.1l-1.1-1.9
				c-2.1-3.8-3.8-7.8-5.1-12l33.8-9.2c1.4,4,3.7,7.6,6.6,10.6c3.4,3.4,7.8,6,12.6,7.3c2.3,0.6,4.7,0.9,7.3,0.9c2.5,0,5-0.3,7.3-0.9
				C160.7,89.3,163.4,88.1,165.8,86.5z"/>
			<path class="st1" d="M104.4,20.1l24.8,24.8c-2.6,3.1-4.6,6.8-5.7,10.9c-0.6,2.3-0.9,4.7-0.9,7.3c0,1.7,0.1,3.3,0.4,4.9l-33.8,9.2
				c-1.1-4.5-1.6-9.3-1.6-14.1c0-5.7,0.7-11.1,2.1-16.3c1.3-5,3.3-9.7,5.7-14.1l1.1-2C98.7,26.8,101.4,23.3,104.4,20.1z"/>
			<path class="st3" d="M336.8,44.5L303,53.8c-1.4-4-3.7-7.6-6.6-10.6c-3.4-3.4-7.8-6-12.6-7.3c-2.3-0.6-4.7-0.9-7.3-0.9
				s-5,0.3-7.3,0.9c-2.9,0.8-5.6,2-8.1,3.6l-24.7-25.2c2.4-2,4.9-3.8,7.6-5.3l2-1.2c4.4-2.4,9.2-4.4,14.1-5.7
				c5.2-1.4,10.7-2.1,16.3-2.1c5.6,0,11.1,0.7,16.3,2.1c5,1.3,9.7,3.3,14.1,5.7l2,1.2c4.4,2.6,8.5,5.8,12.1,9.5
				c3.6,3.6,6.8,7.7,9.5,12.1l1.1,1.9C333.8,36.3,335.5,40.3,336.8,44.5z"/>
		</g>
	</g>
</g>
<g>
	<g>
		<polygon points="0,211.3 0,168.7 6.8,168.7 24.4,196.8 24.4,168.7 32.9,168.7 32.9,211.3 26.1,211.3 8.5,183.2 8.5,211.3 		"/>
	</g>
	<g>
		<path d="M57.6,211.6c-0.9,0-2-0.1-3.1-0.3c-1.2-0.2-2.3-0.5-3.4-1.2c-1.1-0.6-2-1.5-2.7-2.8c-0.7-1.3-1-3-1-5.2v-23.8
			c0-1.9,0.3-3.5,0.9-4.7c0.6-1.3,1.3-2.3,2.3-3c0.9-0.7,2-1.2,3.1-1.6c1.1-0.3,2.3-0.5,3.4-0.5c2.8,0,5.4,0,7.5,0.1
			c2.2,0.1,4.2,0.2,5.9,0.3c1.7,0.1,3.3,0.2,4.8,0.3v7.1H59.5c-1.2,0-2.1,0.3-2.7,0.9c-0.6,0.6-1,1.5-1,2.6v6.2l16.7,0.5v6.7
			l-16.7,0.5v5.9c0,1,0.2,1.8,0.5,2.4c0.3,0.5,0.8,0.9,1.3,1.2c0.6,0.2,1.2,0.3,1.8,0.3h15.9v7.1c-1.7,0.2-3.5,0.3-5.6,0.5
			c-2,0.1-4.1,0.2-6.2,0.3C61.4,211.5,59.5,211.6,57.6,211.6z"/>
	</g>
	<g>
		<polygon points="98.5,211.3 98.5,176.3 86.9,176.3 86.9,168.7 118.5,168.7 118.5,176.3 106.9,176.3 106.9,211.3 		"/>
	</g>
	<g>
		<polygon points="130.3,211.3 130.3,168.7 138.8,168.7 138.8,186.4 154.7,186.4 154.7,168.7 163.2,168.7 163.2,211.3 154.7,211.3 
			154.7,194.1 138.8,194.1 138.8,211.3 		"/>
	</g>
	<g>
		<path d="M187.9,211.6c-0.9,0-2-0.1-3.1-0.3c-1.2-0.2-2.3-0.5-3.4-1.2c-1.1-0.6-2-1.5-2.7-2.8c-0.7-1.3-1-3-1-5.2v-23.8
			c0-1.9,0.3-3.5,0.9-4.7c0.6-1.3,1.3-2.3,2.3-3c0.9-0.7,2-1.2,3.1-1.6c1.1-0.3,2.3-0.5,3.4-0.5c2.8,0,5.4,0,7.5,0.1
			c2.2,0.1,4.2,0.2,5.9,0.3c1.7,0.1,3.3,0.2,4.8,0.3v7.1h-15.7c-1.2,0-2.1,0.3-2.7,0.9c-0.6,0.6-1,1.5-1,2.6v6.2l16.7,0.5v6.7
			l-16.7,0.5v5.9c0,1,0.2,1.8,0.5,2.4c0.3,0.5,0.8,0.9,1.3,1.2c0.6,0.2,1.2,0.3,1.8,0.3h15.9v7.1c-1.7,0.2-3.5,0.3-5.6,0.5
			c-2,0.1-4.1,0.2-6.2,0.3C191.7,211.5,189.8,211.6,187.9,211.6z"/>
	</g>
	<g>
		<path d="M221.3,211.3v-42.6h17.4c1.7,0,3.2,0.2,4.7,0.6c1.4,0.4,2.7,1.1,3.8,2.1c1.1,1,2,2.4,2.6,4.1c0.6,1.8,1,4,1,6.8
			c0,2-0.2,3.6-0.6,5c-0.4,1.4-0.9,2.5-1.5,3.4c-0.6,0.9-1.3,1.6-2.1,2.1c-0.8,0.5-1.6,1-2.5,1.3l7.9,17.1h-8.6l-6.8-15.8
			c-0.5,0-1,0-1.6,0c-0.6,0-1.2-0.1-1.8-0.1s-1.2,0-1.8,0c-0.6,0-1.2,0-1.7-0.1v15.9H221.3z M229.7,188.7h7.5c0.8,0,1.4-0.1,2.1-0.3
			c0.6-0.2,1.1-0.5,1.6-1c0.5-0.5,0.8-1.2,1-2c0.3-0.8,0.4-1.8,0.4-3.1c0-1.2-0.1-2.2-0.4-2.9c-0.2-0.8-0.6-1.4-1-1.8
			c-0.5-0.5-1-0.8-1.6-0.9c-0.6-0.2-1.3-0.3-2.1-0.3h-7.5V188.7z"/>
	</g>
	<g>
		<polygon points="264.1,211.3 269,168.7 277.1,168.7 286.8,201.3 296.4,168.7 304.4,168.7 309.4,211.3 301.3,211.3 297.6,179.9 
			298.9,180 290.7,211.3 282.7,211.3 274.4,180 275.8,180 272.3,211.3 		"/>
	</g>
	<g>
		<rect x="324.1" y="168.7" width="8.4" height="42.6"/>
	</g>
	<g>
		<polygon points="347.1,211.3 347.1,168.7 353.9,168.7 371.6,196.8 371.6,168.7 380,168.7 380,211.3 373.2,211.3 355.6,183.2 
			355.6,211.3 		"/>
	</g>
	<g>
		<path d="M394.5,211.3v-42.6h17.8c2.8,0,5.2,0.5,7.1,1.6c1.9,1,3.4,2.5,4.5,4.4c1.1,1.9,1.9,4.1,2.4,6.7c0.5,2.6,0.7,5.5,0.7,8.6
			c0,4.8-0.6,8.8-1.7,11.9c-1.1,3.1-2.7,5.5-4.8,7.1c-2.2,1.5-4.9,2.3-8.2,2.3H394.5z M402.9,203.6h8.5c1.7,0,3.1-0.5,4.2-1.5
			c1-1,1.8-2.6,2.2-4.6c0.5-2,0.7-4.5,0.7-7.5c0-2.8-0.2-5-0.5-6.8c-0.3-1.8-0.8-3.2-1.4-4.2c-0.6-1-1.3-1.7-2.2-2.1
			c-0.9-0.4-1.9-0.6-3.1-0.6h-8.5V203.6z"/>
	</g>
</g>
</svg>
